<svg viewBox="-199.8041754293132 -96 611.8726046672604 200" xmlns="http://www.w3.org/2000/svg" xmlns:xlink="http://www.w3.org/1999/xlink" version="1.1" class="jsx-2263963463 artboard-inner" style="width: 338px; height: 110.481px; max-height: 100%;">
  <g transform="translate(-10.10886469673406 55.00000000000002) scale(2.160013824088474)" fill="#000">
    <g id="line1">
      <path d="M12.312 0C13.320 0 13.824-0.504 13.824-1.512L13.824-16.848C13.824-17.376 14.112-17.640 14.688-17.640L27.000-17.640C28.008-17.640 28.512-18.168 28.512-19.224L28.512-24.048C28.512-25.056 28.008-25.560 27.000-25.560L14.688-25.560C14.112-25.560 13.824-25.848 13.824-26.424L13.824-37.584C13.824-38.112 14.112-38.376 14.688-38.376L29.160-38.376C30.120-38.376 30.600-38.880 30.600-39.888L30.600-44.784C30.600-45.792 30.120-46.296 29.160-46.296L6.192-46.296C5.184-46.296 4.680-45.792 4.680-44.784L4.680-1.512C4.680-0.504 5.184 0 6.192 0Z"/>
      <path d="M48.773-7.920C47.237-7.920 46.157-8.244 45.533-8.892C44.909-9.540 44.597-10.632 44.597-12.168L44.597-34.128C44.597-35.664 44.909-36.756 45.533-37.404C46.157-38.052 47.237-38.376 48.773-38.376L53.885-38.376C55.421-38.376 56.513-38.052 57.161-37.404C57.809-36.756 58.133-35.664 58.133-34.128L58.133-12.168C58.133-10.632 57.809-9.540 57.161-8.892C56.513-8.244 55.421-7.920 53.885-7.920ZM55.397 0C59.189 0 62.117-1.008 64.181-3.024C66.245-5.040 67.277-7.944 67.277-11.736L67.277-34.560C67.277-38.352 66.245-41.256 64.181-43.272C62.117-45.288 59.189-46.296 55.397-46.296L47.333-46.296C43.541-46.296 40.613-45.288 38.549-43.272C36.485-41.256 35.453-38.352 35.453-34.560L35.453-11.736C35.453-7.944 36.485-5.040 38.549-3.024C40.613-1.008 43.541 0 47.333 0Z"/>
      <path d="M82.642 0C83.650 0 84.154-0.504 84.154-1.512L84.154-16.272C84.154-16.800 84.442-17.064 85.018-17.064L89.842-17.064L97.042-1.512C97.282-0.888 97.594-0.480 97.978-0.288C98.362-0.096 98.986 0 99.850 0L105.682 0C106.930 0 107.338-0.576 106.906-1.728L99.202-17.784L99.202-18.072C103.474-19.848 105.610-23.448 105.610-28.872L105.610-34.488C105.610-38.232 104.554-41.136 102.442-43.200C100.330-45.264 97.402-46.296 93.658-46.296L76.522-46.296C75.514-46.296 75.010-45.792 75.010-44.784L75.010-1.512C75.010-0.504 75.514 0 76.522 0ZM84.946-24.408C84.418-24.408 84.154-24.672 84.154-25.200L84.154-37.584C84.154-38.112 84.418-38.376 84.946-38.376L92.002-38.376C93.538-38.376 94.666-38.040 95.386-37.368C96.106-36.696 96.466-35.616 96.466-34.128L96.466-28.512C96.466-27.072 96.106-26.028 95.386-25.380C94.666-24.732 93.538-24.408 92.002-24.408Z"/>
      <path d="M144.230-46.296C143.462-46.296 143.006-45.960 142.862-45.288L135.158-19.872L134.726-19.872L127.094-45.288C126.854-45.960 126.398-46.296 125.726-46.296L114.998-46.296C113.990-46.296 113.486-45.792 113.486-44.784L113.486-1.512C113.486-0.504 113.990 0 114.998 0L120.902 0C121.526 0 121.934-0.108 122.126-0.324C122.318-0.540 122.414-0.936 122.414-1.512L122.414-35.712L122.702-35.712L130.190-11.520C130.478-10.560 131.078-10.080 131.990-10.080L138.038-10.080C138.950-10.080 139.550-10.560 139.838-11.520L147.182-35.640L147.470-35.640L147.470-1.512C147.470-0.504 147.974 0 148.982 0L154.886 0C155.894 0 156.398-0.504 156.398-1.512L156.398-44.784C156.398-45.792 155.894-46.296 154.886-46.296Z"/>
      <path d="M163.699-11.808C163.699-8.064 164.755-5.160 166.867-3.096C168.979-1.032 171.907 0 175.651 0L183.499 0C187.243 0 190.171-1.032 192.283-3.096C194.395-5.160 195.451-8.064 195.451-11.808L195.451-14.256C195.451-17.136 194.887-19.500 193.759-21.348C192.631-23.196 191.227-24.480 189.547-25.200C186.379-26.496 182.755-27.312 178.675-27.648C174.739-27.984 172.771-29.280 172.771-31.536L172.771-32.904C172.771-35.064 173.119-36.516 173.815-37.260C174.511-38.004 175.843-38.376 177.811-38.376L180.619-38.376C182.539-38.376 183.859-38.040 184.579-37.368C185.299-36.696 185.659-35.424 185.659-33.552L185.659-33.120C185.659-32.112 186.163-31.608 187.171-31.608L193.291-31.608C194.299-31.608 194.803-32.112 194.803-33.120L194.803-34.488C194.803-38.232 193.747-41.136 191.635-43.200C189.523-45.264 186.571-46.296 182.779-46.296L175.579-46.296C171.835-46.296 168.907-45.264 166.795-43.200C164.683-41.136 163.627-38.232 163.627-34.488L163.627-31.968C163.627-28.992 164.191-26.556 165.319-24.660C166.447-22.764 167.851-21.492 169.531-20.844C171.211-20.196 173.023-19.668 174.967-19.260C176.911-18.852 178.723-18.576 180.403-18.432C182.083-18.288 183.487-17.844 184.615-17.100C185.743-16.356 186.307-15.288 186.307-13.896L186.307-13.032C186.307-11.064 185.935-9.720 185.191-9.000C184.447-8.280 183.139-7.920 181.267-7.920L177.883-7.920C175.963-7.920 174.643-8.256 173.923-8.928C173.203-9.600 172.843-10.848 172.843-12.672L172.843-13.248C172.843-14.256 172.339-14.760 171.331-14.760L165.211-14.760C164.203-14.760 163.699-14.256 163.699-13.248Z"/>
    </g>
  </g>
  <g transform="translate(-240.76756771023648 -110.4554066471865) scale(2.4096113106425454)" id="logomark">
    <g fill="#000">
      <path d="M17 16.9v66.2c0 3.3 2.7 5.9 5.9 5.9h54.2c3.3 0 5.9-2.7 5.9-5.9V34.4c0-2.2-1.8-4-4-4s-4 1.8-4 4V81H25V19h22.7c2.2 0 4-1.8 4-4s-1.8-4-4-4H22.9c-3.2 0-5.9 2.7-5.9 5.9z"/>
      <path d="M66.3 7.4L33.5 40.3c-.8.8-1.3 1.8-1.4 3l-.7 6.7c-.2 1.6.4 3.3 1.5 4.5 1.1 1.1 2.6 1.8 4.1 1.8h.2l7.2-.3c1.3 0 2.5-.5 3.4-1.4l32.8-32.8c1.9-1.9 1.9-5.1 0-7l-7.2-7.2c-2-2.1-5.1-2.1-7.1-.2zM39.6 48.1l.2-2.4 2.3 2.3-2.5.1zm8.6-5.4l-2.9-2.9 16.9-16.9 2.9 2.9-16.9 16.9zm22.6-22.5l-2.9-2.9 2-2 2.9 2.9-2 2z"/>
    </g>
  </g>
</svg>
