<svg viewBox="-236.20124416796264 -86.05205177939024 558.9384136858475 167.09136267842766" xmlns="http://www.w3.org/2000/svg" xmlns:xlink="http://www.w3.org/1999/xlink" version="1.1" class="jsx-2263963463 artboard-inner" style="width: 340px; height: 101.641px; max-height: 100%;"><g transform="translate(-7.465007776049766 52.999999999999986) scale(2.1600138240884736)" fill="#000"><g id="line1"><path d="M3.528-11.808C3.528-8.064 4.584-5.160 6.696-3.096C8.808-1.032 11.736 0 15.480 0L23.328 0C27.072 0 30.000-1.032 32.112-3.096C34.224-5.160 35.280-8.064 35.280-11.808L35.280-14.256C35.280-17.136 34.716-19.500 33.588-21.348C32.460-23.196 31.056-24.480 29.376-25.200C26.208-26.496 22.584-27.312 18.504-27.648C14.568-27.984 12.600-29.280 12.600-31.536L12.600-32.904C12.600-35.064 12.948-36.516 13.644-37.260C14.340-38.004 15.672-38.376 17.640-38.376L20.448-38.376C22.368-38.376 23.688-38.040 24.408-37.368C25.128-36.696 25.488-35.424 25.488-33.552L25.488-33.120C25.488-32.112 25.992-31.608 27.000-31.608L33.120-31.608C34.128-31.608 34.632-32.112 34.632-33.120L34.632-34.488C34.632-38.232 33.576-41.136 31.464-43.200C29.352-45.264 26.400-46.296 22.608-46.296L15.408-46.296C11.664-46.296 8.736-45.264 6.624-43.200C4.512-41.136 3.456-38.232 3.456-34.488L3.456-31.968C3.456-28.992 4.020-26.556 5.148-24.660C6.276-22.764 7.680-21.492 9.360-20.844C11.040-20.196 12.852-19.668 14.796-19.260C16.740-18.852 18.552-18.576 20.232-18.432C21.912-18.288 23.316-17.844 24.444-17.100C25.572-16.356 26.136-15.288 26.136-13.896L26.136-13.032C26.136-11.064 25.764-9.720 25.020-9.000C24.276-8.280 22.968-7.920 21.096-7.920L17.712-7.920C15.792-7.920 14.472-8.256 13.752-8.928C13.032-9.600 12.672-10.848 12.672-12.672L12.672-13.248C12.672-14.256 12.168-14.760 11.160-14.760L5.040-14.760C4.032-14.760 3.528-14.256 3.528-13.248Z"></path><path d="M50.213 0C51.221 0 51.725-0.504 51.725-1.512L51.725-18.360C51.725-18.888 52.013-19.152 52.589-19.152L64.757-19.152C65.285-19.152 65.549-18.888 65.549-18.360L65.549-1.512C65.549-0.504 66.053 0 67.061 0L73.181 0C74.189 0 74.693-0.504 74.693-1.512L74.693-44.784C74.693-45.792 74.189-46.296 73.181-46.296L67.061-46.296C66.053-46.296 65.549-45.792 65.549-44.784L65.549-27.864C65.549-27.336 65.285-27.072 64.757-27.072L52.589-27.072C52.013-27.072 51.725-27.336 51.725-27.864L51.725-44.784C51.725-45.792 51.221-46.296 50.213-46.296L44.093-46.296C43.085-46.296 42.581-45.792 42.581-44.784L42.581-1.512C42.581-0.504 43.085 0 44.093 0Z"></path><path d="M95.746-7.920C94.210-7.920 93.130-8.244 92.506-8.892C91.882-9.540 91.570-10.632 91.570-12.168L91.570-34.128C91.570-35.664 91.882-36.756 92.506-37.404C93.130-38.052 94.210-38.376 95.746-38.376L100.858-38.376C102.394-38.376 103.486-38.052 104.134-37.404C104.782-36.756 105.106-35.664 105.106-34.128L105.106-12.168C105.106-10.632 104.782-9.540 104.134-8.892C103.486-8.244 102.394-7.920 100.858-7.920ZM102.370 0C106.162 0 109.090-1.008 111.154-3.024C113.218-5.040 114.250-7.944 114.250-11.736L114.250-34.560C114.250-38.352 113.218-41.256 111.154-43.272C109.090-45.288 106.162-46.296 102.370-46.296L94.306-46.296C90.514-46.296 87.586-45.288 85.522-43.272C83.458-41.256 82.426-38.352 82.426-34.560L82.426-11.736C82.426-7.944 83.458-5.040 85.522-3.024C87.586-1.008 90.514 0 94.306 0Z"></path><path d="M129.614 0C130.622 0 131.126-0.504 131.126-1.512L131.126-15.120C131.126-15.648 131.414-15.912 131.990-15.912L141.062-15.912C144.806-15.912 147.710-16.932 149.774-18.972C151.838-21.012 152.870-23.904 152.870-27.648L152.870-34.560C152.870-38.304 151.838-41.196 149.774-43.236C147.710-45.276 144.806-46.296 141.062-46.296L123.494-46.296C122.486-46.296 121.982-45.792 121.982-44.784L121.982-1.512C121.982-0.504 122.486 0 123.494 0ZM131.918-23.904C131.390-23.904 131.126-24.168 131.126-24.696L131.126-37.584C131.126-38.112 131.390-38.376 131.918-38.376L139.550-38.376C141.086-38.376 142.166-38.052 142.790-37.404C143.414-36.756 143.726-35.664 143.726-34.128L143.726-28.080C143.726-26.592 143.414-25.524 142.790-24.876C142.166-24.228 141.086-23.904 139.550-23.904Z"></path></g></g><g transform="translate(-239.2955283705568 -105.64918506248655) scale(2.0628561350627694)" id="logomark"><g fill="#000"><path d="M94.2 57.4c-.6-.8-.9-1.7-.9-2.7V17c0-4.1-3.3-7.5-7.5-7.5h-60c-4.1 0-7.5 3.3-7.5 7.5v29h7.4V16.9h60.1V55.3H46.5l-.5 1.8c-.1.4-.1.8-.3 1.2l-3.5 12.4h51.2c2.8 0 5.1-2.3 5.1-5.1v-2.2c0-.5-.2-.9-.4-1.3l-3.9-4.7zm-30.3 5.9c0 1.4-1.2 2.6-2.6 2.6h-11c-1.4 0-2.6-1.2-2.6-2.6v-.6h16.2v.6zm-14.8-15c.8 0 1.5-.7 1.5-1.5v-.2c0-.8-.7-1.5-1.5-1.5h-8.4l-1.9 6.7c-.7-.4-1.4-.6-2.3-.6H6.7c-1.4 0-2.7.6-3.5 1.7-.9 1.1-1.2 2.5-.8 3.9l4 16.3c.5 2 2.3 3.4 4.4 3.4H35c1 0 1.8.8 1.8 1.8s-.8 1.8-1.8 1.8H16.8 6.5c-2.8.1-5 2.4-5 5.2 0 2.9 2.3 5.2 5.2 5.2s5.2-2.3 5.2-5.2c0-.6-.1-1.2-.3-1.7h13.8c-.2.5-.3 1.1-.3 1.7 0 2.9 2.3 5.2 5.2 5.2s5.2-2.3 5.2-5.2c0-.6-.1-1.2-.3-1.7 2.8-.2 5-2.5 5-5.3 0-2.5-1.7-4.6-4-5.2l4.6-16.2c.1-.3.1-.5.2-.8l2.2-7.8h5.9zM6.7 87c-.9 0-1.7-.8-1.7-1.7 0-.9.8-1.7 1.7-1.7s1.7.8 1.7 1.7S7.7 87 6.7 87zm23.7 0c-.9 0-1.7-.8-1.7-1.7s.8-1.7 1.7-1.7 1.7.8 1.7 1.7-.7 1.7-1.7 1.7zM5.7 55.9c-.1-.4.1-.7.2-.9.1-.1.4-.4.8-.4h2.9l.8 4h-4l-.7-2.7zm1.5 6.3h3.9l.8 3.7H8.2l-1-3.7zm3.5 10.7c-.5 0-.9-.3-1-.8L9 69.4h3.6l.7 3.5h-2.6zm9 0H17l-.7-3.5h3.5v3.5zm0-7h-4.2l-.8-3.7h5v3.7zm0-7.2h-5.8l-.8-4h6.6v4zm6 14.2h-2.5v-3.5h3.2l-.7 3.5zm1.5-7h-4v-3.7H28l-.8 3.7zm-4-7.2v-4h6.5l-.9 4h-5.6zm9.7 13.5c-.1.4-.5.7-1 .7h-2.7l.8-3.5h3.7l-.8 2.8zm1.8-6.3h-3.9l.8-3.7h4.1l-1 3.7zm2.8-10l-.8 2.8h-4.3l.9-4h3.3c.4 0 .7.3.8.4 0 .1.2.4.1.8z"></path></g></g></svg>