<svg viewBox="-241.4153627311522 -101.26656458343506 568.5846372688477 187.53067515450934" xmlns="http://www.w3.org/2000/svg" xmlns:xlink="http://www.w3.org/1999/xlink" version="1.1" class="jsx-2263963463 artboard-inner" style="width: 338px; height: 111.479px; max-height: 100%;"><g transform="translate(-6.827880512091038 42) scale(1.9756598703967123)" fill="#FFFFFF"><g id="line1"><path d="M3.528-11.808C3.528-8.064 4.584-5.160 6.696-3.096C8.808-1.032 11.736 0 15.480 0L23.328 0C27.072 0 30.000-1.032 32.112-3.096C34.224-5.160 35.280-8.064 35.280-11.808L35.280-14.256C35.280-17.136 34.716-19.500 33.588-21.348C32.460-23.196 31.056-24.480 29.376-25.200C26.208-26.496 22.584-27.312 18.504-27.648C14.568-27.984 12.600-29.280 12.600-31.536L12.600-32.904C12.600-35.064 12.948-36.516 13.644-37.260C14.340-38.004 15.672-38.376 17.640-38.376L20.448-38.376C22.368-38.376 23.688-38.040 24.408-37.368C25.128-36.696 25.488-35.424 25.488-33.552L25.488-33.120C25.488-32.112 25.992-31.608 27.000-31.608L33.120-31.608C34.128-31.608 34.632-32.112 34.632-33.120L34.632-34.488C34.632-38.232 33.576-41.136 31.464-43.200C29.352-45.264 26.400-46.296 22.608-46.296L15.408-46.296C11.664-46.296 8.736-45.264 6.624-43.200C4.512-41.136 3.456-38.232 3.456-34.488L3.456-31.968C3.456-28.992 4.020-26.556 5.148-24.660C6.276-22.764 7.680-21.492 9.360-20.844C11.040-20.196 12.852-19.668 14.796-19.260C16.740-18.852 18.552-18.576 20.232-18.432C21.912-18.288 23.316-17.844 24.444-17.100C25.572-16.356 26.136-15.288 26.136-13.896L26.136-13.032C26.136-11.064 25.764-9.720 25.020-9.000C24.276-8.280 22.968-7.920 21.096-7.920L17.712-7.920C15.792-7.920 14.472-8.256 13.752-8.928C13.032-9.600 12.672-10.848 12.672-12.672L12.672-13.248C12.672-14.256 12.168-14.760 11.160-14.760L5.040-14.760C4.032-14.760 3.528-14.256 3.528-13.248Z"></path><path d="M59.429 0C63.173 0 66.089-1.020 68.177-3.060C70.265-5.100 71.309-7.992 71.309-11.736L71.309-24.984C71.309-28.728 70.265-31.620 68.177-33.660C66.089-35.700 63.173-36.720 59.429-36.720L53.021-36.720C49.229-36.720 46.301-35.712 44.237-33.696C42.173-31.680 41.141-28.776 41.141-24.984L41.141-11.736C41.141-7.944 42.173-5.040 44.237-3.024C46.301-1.008 49.229 0 53.021 0ZM54.389-7.848C52.853-7.848 51.773-8.160 51.149-8.784C50.525-9.408 50.213-10.488 50.213-12.024L50.213-24.696C50.213-26.232 50.525-27.312 51.149-27.936C51.773-28.560 52.853-28.872 54.389-28.872L58.061-28.872C59.597-28.872 60.689-28.560 61.337-27.936C61.985-27.312 62.309-26.232 62.309-24.696L62.309-12.024C62.309-10.488 61.985-9.408 61.337-8.784C60.689-8.160 59.597-7.848 58.061-7.848Z"></path><path d="M101.002-6.408C101.002-7.416 100.498-7.920 99.490-7.920L90.202-7.920C88.714-7.920 87.646-8.244 86.998-8.892C86.350-9.540 86.026-10.632 86.026-12.168L86.026-24.552C86.026-26.088 86.350-27.180 86.998-27.828C87.646-28.476 88.714-28.800 90.202-28.800L99.490-28.800C100.066-28.800 100.462-28.908 100.678-29.124C100.894-29.340 101.002-29.712 101.002-30.240L101.002-35.208C101.002-36.216 100.498-36.720 99.490-36.720L88.762-36.720C84.970-36.720 82.042-35.712 79.978-33.696C77.914-31.680 76.882-28.776 76.882-24.984L76.882-11.736C76.882-7.944 77.914-5.040 79.978-3.024C82.042-1.008 84.970 0 88.762 0L99.490 0C100.066 0 100.462-0.108 100.678-0.324C100.894-0.540 101.002-0.912 101.002-1.440Z"></path><path d="M106.646-42.912C106.646-41.952 107.126-41.472 108.086-41.472L114.350-41.472C115.310-41.472 115.790-41.952 115.790-42.912L115.790-49.248C115.790-50.160 115.310-50.616 114.350-50.616L108.086-50.616C107.126-50.616 106.646-50.136 106.646-49.176ZM106.646-1.512C106.646-0.504 107.150 0 108.158 0L114.350 0C114.878 0 115.250-0.096 115.466-0.288C115.682-0.480 115.790-0.888 115.790-1.512L115.790-35.208C115.790-36.216 115.286-36.720 114.278-36.720L108.086-36.720C107.126-36.720 106.646-36.216 106.646-35.208Z"></path><path d="M136.051 0C137.539 0 138.955-0.324 140.299-0.972C141.643-1.620 142.579-2.592 143.107-3.888L143.395-3.888L143.395-1.512C143.395-0.504 143.899 0 144.907 0L150.955 0C152.011 0 152.539-0.504 152.539-1.512L152.539-35.208C152.539-36.216 152.011-36.720 150.955-36.720L134.323-36.720C130.531-36.720 127.603-35.712 125.539-33.696C123.475-31.680 122.443-28.776 122.443-24.984L122.443-11.736C122.443-7.944 123.475-5.040 125.539-3.024C127.603-1.008 130.531 0 134.323 0ZM143.395-13.392C143.395-9.744 141.739-7.920 138.427-7.920L135.763-7.920C134.227-7.920 133.147-8.244 132.523-8.892C131.899-9.540 131.587-10.632 131.587-12.168L131.587-24.552C131.587-26.088 131.899-27.180 132.523-27.828C133.147-28.476 134.227-28.800 135.763-28.800L142.531-28.800C143.107-28.800 143.395-28.536 143.395-28.008Z"></path><path d="M167.544 0C168.552 0 169.056-0.504 169.056-1.512L169.056-49.104C169.056-50.112 168.552-50.616 167.544-50.616L161.424-50.616C160.416-50.616 159.912-50.112 159.912-49.104L159.912-1.512C159.912-0.504 160.416 0 161.424 0Z"></path></g></g><g transform="translate(-252.68470065577947 -120.19310881912008) scale(0.7512787822010972)" id="logomark"><g fill="#FFFFFF"><defs></defs><path d="M148.528 25.212c-9.466.245-19.103 2.758-27.867 7.817-19.836 11.452-30.42 33.007-29.155 54.54-25.848 17.884-41.2 46.144-43.778 75.876-1.146.564-2.283 1.1-3.403 1.747-27.952 16.138-37.653 52.35-21.521 80.29 16.138 27.953 52.35 37.654 80.29 21.522a59.03 59.03 0 0 0 3.22-2.023c27.082 12.662 59.289 13.49 87.74 0 17.991 11.767 41.844 13.442 61.621 2.023 27.952-16.138 37.653-52.35 21.521-80.29-5.99-10.377-14.772-18.27-24.832-23.27a101.706 101.706 0 0 0-13.336-42.766c-7.809-13.526-18.345-24.574-30.442-32.926.751-11.217-1.634-22.717-7.634-33.11-11.073-19.178-31.538-29.973-52.424-29.43zm.736 29.43c10.347-.268 20.473 4.935 26.12 14.716 8.188 14.182 3.503 31.825-10.669 40.007-14.154 8.172-31.816 3.427-40.007-10.76-8.188-14.182-3.503-31.826 10.669-40.008 4.4-2.54 9.157-3.832 13.887-3.955zM101.531 117c17.078 25.077 51.202 33.349 77.9 17.934 7.904-4.563 14.227-10.804 19.038-17.934 5.799 5.134 10.88 11.275 14.991 18.394 4.077 7.061 6.808 14.535 8.37 22.073-8.517.646-17.06 3.094-24.925 7.634-26.69 15.41-36.646 49.093-23.452 76.428a73.044 73.044 0 0 1-46.906.092c8.114-16.946 8.1-37.532-1.931-54.907-10.038-17.387-27.811-27.746-46.538-29.155 3.096-15.391 11.145-29.766 23.453-40.56zm123.977 69.714c10.348-.268 20.473 4.934 26.12 14.716 8.188 14.182 3.503 31.825-10.668 40.007-14.155 8.172-31.817 3.427-40.008-10.76-8.188-14.182-3.503-31.826 10.669-40.008 4.4-2.54 9.157-3.832 13.887-3.955zm-152.58.092c10.405-.27 20.486 4.866 26.12 14.624 8.188 14.182 3.503 31.825-10.669 40.007-14.182 8.188-31.825 3.503-40.007-10.669-8.188-14.182-3.503-31.825 10.668-40.007 4.4-2.54 9.158-3.832 13.888-3.955z" fill-rule="nonzero" overflow="visible" color="#FFFFFF"></path></g></g></svg>