<svg viewBox="-240.15458786936236 -62.126936925292505 569.2681181959565 126.7896671944745" xmlns="http://www.w3.org/2000/svg" xmlns:xlink="http://www.w3.org/1999/xlink" version="1.1" class="jsx-2263963463 artboard-inner" style="width: 338px; height: 75.2807px; max-height: 100%;"><g transform="translate(-7.465007776049766 56.99999999999999) scale(2.1600138240884736)" fill="#000"><g id="line1"><path d="M3.528-11.808C3.528-8.064 4.584-5.160 6.696-3.096C8.808-1.032 11.736 0 15.480 0L23.328 0C27.072 0 30.000-1.032 32.112-3.096C34.224-5.160 35.280-8.064 35.280-11.808L35.280-14.256C35.280-17.136 34.716-19.500 33.588-21.348C32.460-23.196 31.056-24.480 29.376-25.200C26.208-26.496 22.584-27.312 18.504-27.648C14.568-27.984 12.600-29.280 12.600-31.536L12.600-32.904C12.600-35.064 12.948-36.516 13.644-37.260C14.340-38.004 15.672-38.376 17.640-38.376L20.448-38.376C22.368-38.376 23.688-38.040 24.408-37.368C25.128-36.696 25.488-35.424 25.488-33.552L25.488-33.120C25.488-32.112 25.992-31.608 27.000-31.608L33.120-31.608C34.128-31.608 34.632-32.112 34.632-33.120L34.632-34.488C34.632-38.232 33.576-41.136 31.464-43.200C29.352-45.264 26.400-46.296 22.608-46.296L15.408-46.296C11.664-46.296 8.736-45.264 6.624-43.200C4.512-41.136 3.456-38.232 3.456-34.488L3.456-31.968C3.456-28.992 4.020-26.556 5.148-24.660C6.276-22.764 7.680-21.492 9.360-20.844C11.040-20.196 12.852-19.668 14.796-19.260C16.740-18.852 18.552-18.576 20.232-18.432C21.912-18.288 23.316-17.844 24.444-17.100C25.572-16.356 26.136-15.288 26.136-13.896L26.136-13.032C26.136-11.064 25.764-9.720 25.020-9.000C24.276-8.280 22.968-7.920 21.096-7.920L17.712-7.920C15.792-7.920 14.472-8.256 13.752-8.928C13.032-9.600 12.672-10.848 12.672-12.672L12.672-13.248C12.672-14.256 12.168-14.760 11.160-14.760L5.040-14.760C4.032-14.760 3.528-14.256 3.528-13.248Z"></path><path d="M73.325-46.296C72.557-46.296 72.101-45.960 71.957-45.288L64.253-19.872L63.821-19.872L56.189-45.288C55.949-45.960 55.493-46.296 54.821-46.296L44.093-46.296C43.085-46.296 42.581-45.792 42.581-44.784L42.581-1.512C42.581-0.504 43.085 0 44.093 0L49.997 0C50.621 0 51.029-0.108 51.221-0.324C51.413-0.540 51.509-0.936 51.509-1.512L51.509-35.712L51.797-35.712L59.285-11.520C59.573-10.560 60.173-10.080 61.085-10.080L67.133-10.080C68.045-10.080 68.645-10.560 68.933-11.520L76.277-35.640L76.565-35.640L76.565-1.512C76.565-0.504 77.069 0 78.077 0L83.981 0C84.989 0 85.493-0.504 85.493-1.512L85.493-44.784C85.493-45.792 84.989-46.296 83.981-46.296Z"></path><path d="M108.274 0C109.282 0 109.786-0.504 109.786-1.512L109.786-37.584C109.786-38.112 110.074-38.376 110.650-38.376L118.858-38.376C119.866-38.376 120.370-38.880 120.370-39.888L120.370-44.784C120.370-45.792 119.866-46.296 118.858-46.296L91.642-46.296C90.634-46.296 90.130-45.792 90.130-44.784L90.130-39.888C90.130-38.880 90.634-38.376 91.642-38.376L99.850-38.376C100.378-38.376 100.642-38.112 100.642-37.584L100.642-1.512C100.642-0.504 101.170 0 102.226 0Z"></path><path d="M132.566 0C133.574 0 134.078-0.504 134.078-1.512L134.078-15.120C134.078-15.648 134.366-15.912 134.942-15.912L144.014-15.912C147.758-15.912 150.662-16.932 152.726-18.972C154.790-21.012 155.822-23.904 155.822-27.648L155.822-34.560C155.822-38.304 154.790-41.196 152.726-43.236C150.662-45.276 147.758-46.296 144.014-46.296L126.446-46.296C125.438-46.296 124.934-45.792 124.934-44.784L124.934-1.512C124.934-0.504 125.438 0 126.446 0ZM134.870-23.904C134.342-23.904 134.078-24.168 134.078-24.696L134.078-37.584C134.078-38.112 134.342-38.376 134.870-38.376L142.502-38.376C144.038-38.376 145.118-38.052 145.742-37.404C146.366-36.756 146.678-35.664 146.678-34.128L146.678-28.080C146.678-26.592 146.366-25.524 145.742-24.876C145.118-24.228 144.038-23.904 142.502-23.904Z"></path></g></g><g transform="translate(-250.2821584294808 -111.24500138677277) scale(2.312962154845934)" id="logomark"><g fill="#000"><path d="M52.188 57.179a4.44 4.44 0 0 1-2.061.503c-.468 0-.921-.073-1.351-.221a3.249 3.249 0 0 1-1.767-.601L5.975 28.868c-1.742-1.19-2.11-3.657-.848-5.522.7-1.019 1.743-1.644 2.835-1.804l.099-.024c.466-.172.97-.27 1.497-.27h78.131c.185 0 .368.012.541.037.221-.025.454-.049.687-.049 1.019 0 1.939.368 2.603.958.674.601 1.079 1.424 1.079 2.319V72.69c0 1.805-1.645 3.264-3.682 3.264-.085 0-.159 0-.245-.012a2.685 2.685 0 0 1-.773.111H9.767c-.308 0-.602-.049-.884-.135a4.273 4.273 0 0 1-4.136-4.283V41.373a4.25 4.25 0 0 1 1.265-3.043 4.282 4.282 0 0 1 3.03-1.252 4.292 4.292 0 0 1 4.295 4.295v26.789h71.898V28.844H20.454l28.863 19.683 19.462-10.05c2.209-1.128 4.921-.27 6.062 1.939s.271 4.92-1.938 6.062L52.188 57.179z"></path></g></g></svg>