<svg viewBox="-202.32441679626749 -67.92904890983492 461.39129082426126 128.16801681100927" xmlns="http://www.w3.org/2000/svg" xmlns:xlink="http://www.w3.org/1999/xlink" version="1.1" class="jsx-2263963463 artboard-inner" style="width: 338px; height: 93.8917px; max-height: 100%;"><g transform="translate(-8.553654743390357 53.999999999999986) scale(2.1600138240884736)" fill="#000"><g id="line1"><path d="M23.688 0C27.432 0 30.348-1.020 32.436-3.060C34.524-5.100 35.568-7.992 35.568-11.736L35.568-15.120C35.568-16.176 35.040-16.704 33.984-16.704L27.936-16.704C26.928-16.704 26.424-16.176 26.424-15.120L26.424-12.168C26.424-10.632 26.100-9.540 25.452-8.892C24.804-8.244 23.712-7.920 22.176-7.920L17.280-7.920C15.792-7.920 14.724-8.244 14.076-8.892C13.428-9.540 13.104-10.632 13.104-12.168L13.104-34.128C13.104-35.664 13.428-36.756 14.076-37.404C14.724-38.052 15.792-38.376 17.280-38.376L22.176-38.376C23.712-38.376 24.804-38.052 25.452-37.404C26.100-36.756 26.424-35.664 26.424-34.128L26.424-31.176C26.424-30.120 26.928-29.592 27.936-29.592L33.984-29.592C35.040-29.592 35.568-30.120 35.568-31.176L35.568-34.560C35.568-38.304 34.524-41.196 32.436-43.236C30.348-45.276 27.432-46.296 23.688-46.296L15.840-46.296C12.048-46.296 9.120-45.288 7.056-43.272C4.992-41.256 3.960-38.352 3.960-34.560L3.960-11.736C3.960-7.944 4.992-5.040 7.056-3.024C9.120-1.008 12.048 0 15.840 0Z"></path><path d="M50.141 0C51.149 0 51.653-0.504 51.653-1.512L51.653-16.272C51.653-16.800 51.941-17.064 52.517-17.064L57.341-17.064L64.541-1.512C64.781-0.888 65.093-0.480 65.477-0.288C65.861-0.096 66.485 0 67.349 0L73.181 0C74.429 0 74.837-0.576 74.405-1.728L66.701-17.784L66.701-18.072C70.973-19.848 73.109-23.448 73.109-28.872L73.109-34.488C73.109-38.232 72.053-41.136 69.941-43.200C67.829-45.264 64.901-46.296 61.157-46.296L44.021-46.296C43.013-46.296 42.509-45.792 42.509-44.784L42.509-1.512C42.509-0.504 43.013 0 44.021 0ZM52.445-24.408C51.917-24.408 51.653-24.672 51.653-25.200L51.653-37.584C51.653-38.112 51.917-38.376 52.445-38.376L59.501-38.376C61.037-38.376 62.165-38.040 62.885-37.368C63.605-36.696 63.965-35.616 63.965-34.128L63.965-28.512C63.965-27.072 63.605-26.028 62.885-25.380C62.165-24.732 61.037-24.408 59.501-24.408Z"></path><path d="M111.730-46.296C110.962-46.296 110.506-45.960 110.362-45.288L102.658-19.872L102.226-19.872L94.594-45.288C94.354-45.960 93.898-46.296 93.226-46.296L82.498-46.296C81.490-46.296 80.986-45.792 80.986-44.784L80.986-1.512C80.986-0.504 81.490 0 82.498 0L88.402 0C89.026 0 89.434-0.108 89.626-0.324C89.818-0.540 89.914-0.936 89.914-1.512L89.914-35.712L90.202-35.712L97.690-11.520C97.978-10.560 98.578-10.080 99.490-10.080L105.538-10.080C106.450-10.080 107.050-10.560 107.338-11.520L114.682-35.640L114.970-35.640L114.970-1.512C114.970-0.504 115.474 0 116.482 0L122.386 0C123.394 0 123.898-0.504 123.898-1.512L123.898-44.784C123.898-45.792 123.394-46.296 122.386-46.296Z"></path></g></g><g transform="translate(-271.767186026445 -155.6229487157599) scale(3.3728425476581383)" id="logomark"><g fill="#000"><path d="M62.4 64h-5.6c-1.1 0-2-.9-2-2s.9-2 2-2h5.6c.6 0 1.1-.2 1.5-.7.4-.4.6-.9.5-1.5l-.2-2.7c-.1-.1-.5-.7-2-1.3-3-1.4-4.4-4.7-3.1-7.7.2-.5.4-1.1.5-1.8.3-1.5 0-2.8-.7-3.6-.5-.6-1.3-.9-2.4-.9s-1.8.3-2.4.9c-.7.8-.9 2-.7 3.6.2 1.1-.5 2.1-1.6 2.3-1.1.2-2.1-.5-2.3-1.6-.5-2.8.1-5.3 1.6-6.9 1.3-1.4 3.1-2.2 5.3-2.2s4 .7 5.3 2.2c1.6 1.7 2.1 4.2 1.7 6.9-.2 1-.4 1.8-.8 2.6-.4.9.1 2 1.1 2.5 2.5 1.1 3.9 2.5 4.3 4.2v.3l.2 2.9c.1 1.7-.5 3.2-1.6 4.5-.9 1.3-2.5 2-4.2 2z"></path><path d="M46.4 64H26.6c-1.7 0-3.3-.7-4.4-1.9a6.1 6.1 0 0 1-1.6-4.5c.4-5.9.4-6 .4-6.2.5-2.4 2.8-4.3 7-6 .6-.2 1-.7 1.2-1.2.2-.5.2-1-.1-1.5-.8-1.5-1.3-3-1.6-4.8-.6-3.7.1-6.9 2.1-9.1 1.7-1.8 4.1-2.8 6.9-2.8s5.2 1 6.9 2.8c2 2.2 2.8 5.4 2.1 9.1-.3 1.8-.8 3.3-1.6 4.8-.3.5-.3 1-.1 1.5.2.6.7 1 1.2 1.2 4.2 1.6 6.5 3.6 7 6v.3l.4 5.9c.1 1.7-.5 3.2-1.6 4.5-1.1 1.2-2.7 1.9-4.4 1.9zm-9.9-34c-1.7 0-3 .5-4 1.5-1.2 1.3-1.6 3.3-1.1 5.7.3 1.8.8 2.9 1.2 3.6.8 1.5.9 3.2.3 4.8-.6 1.6-1.9 2.9-3.6 3.6-3.3 1.3-4.4 2.5-4.5 3 0 .2-.2 3.1-.4 5.6 0 .5.2 1.1.5 1.5.4.4.9.7 1.5.7h19.8c.6 0 1.1-.2 1.5-.7.4-.4.6-.9.5-1.5l-.4-5.7c-.2-.6-1.3-1.7-4.5-2.9-1.7-.6-3-1.9-3.6-3.6-.6-1.6-.5-3.3.3-4.8.4-.7.9-1.8 1.2-3.6.4-2.4 0-4.5-1.1-5.7-.6-1-1.9-1.5-3.6-1.5z"></path></g></g></svg>